<svg width="34" height="34" viewBox="0 0 34 34" fill="none" xmlns="http://www.w3.org/2000/svg">
<rect x="0.5" y="0.5" width="33" height="33" stroke="#696969"/>
<path d="M9.25351 22.3451L22.3459 9.25276C22.6829 8.91575 23.2269 8.91575 23.564 9.25276L24.4787 10.1659C24.8141 10.5029 24.8141 11.047 24.4787 11.384L11.3848 24.4764C11.0477 24.8134 10.5037 24.8134 10.1667 24.4764L9.25351 23.5632C8.9181 23.2262 8.9181 22.6805 9.25351 22.3451Z" fill="black"/>
<path d="M11.384 9.25276L24.4764 22.3451C24.8118 22.6805 24.8118 23.2262 24.4764 23.5616L23.5616 24.4748C23.2262 24.8118 22.6805 24.8118 22.3435 24.4748L9.25276 11.384C8.91575 11.047 8.91575 10.5029 9.25276 10.1659L10.1659 9.25276C10.5029 8.91575 11.0486 8.91575 11.384 9.25276Z" fill="black"/>
</svg>
