<svg width="21" height="20" viewBox="0 0 21 20" fill="none" xmlns="http://www.w3.org/2000/svg">
<path d="M10.39 0C4.65179 0 0 4.47718 0 10C0 15.5228 4.65179 20 10.39 20C16.1282 20 20.78 15.5228 20.78 10C20.78 4.47718 16.1282 0 10.39 0ZM15.5038 11.9934C16.3438 12.8019 16.3438 14.1129 15.5038 14.9219C14.6638 15.7304 13.3016 15.7304 12.4612 14.9219L10.39 12.9285L8.31885 14.9219C7.47884 15.7304 6.11665 15.7304 5.27616 14.9219C4.43616 14.1134 4.43616 12.8024 5.27616 11.9934L7.34732 10L5.27616 8.00659C4.43616 7.19812 4.43616 5.88706 5.27616 5.07812C6.11616 4.26965 7.47836 4.26965 8.31885 5.07812L10.39 7.07153L12.4612 5.07812C13.3012 4.26965 14.6633 4.26965 15.5038 5.07812C16.3438 5.88659 16.3438 7.19765 15.5038 8.00659L13.4322 10L15.5038 11.9934Z" fill="#E30000"/>
</svg>
