<svg width="33" height="21" viewBox="0 0 33 21" fill="none" xmlns="http://www.w3.org/2000/svg">
<path d="M29.8493 10.4556C28.0735 7.72921 25.8458 5.68761 23.1693 4.33711C23.8809 5.53861 24.2399 6.83839 24.2399 8.23644C24.2399 10.3731 23.4706 12.2023 21.9353 13.724C20.3967 15.2426 18.5472 16.0034 16.3868 16.0034C14.2264 16.0034 12.377 15.2426 10.8384 13.724C9.30303 12.2023 8.53375 10.3731 8.53375 8.23644C8.53375 6.83839 8.88954 5.53861 9.60434 4.33711C6.92788 5.68761 4.70016 7.72921 2.9244 10.4556C4.47899 12.8237 6.42784 14.7131 8.77095 16.1175C11.1141 17.5219 13.6527 18.2225 16.3868 18.2225C19.121 18.2225 21.6596 17.5219 24.0027 16.1175C26.3458 14.7131 28.2947 12.8237 29.8493 10.4556ZM17.2298 3.79818C17.2298 3.56676 17.1465 3.3702 16.983 3.20852C16.8196 3.04685 16.6208 2.96442 16.3868 2.96442C14.9252 2.96442 13.6719 3.48116 12.627 4.51464C11.582 5.54812 11.0596 6.78767 11.0596 8.23327C11.0596 8.4647 11.1429 8.66125 11.3064 8.82293C11.4698 8.98461 11.6686 9.06703 11.9026 9.06703C12.1366 9.06703 12.3353 8.98461 12.4988 8.82293C12.6622 8.66125 12.7456 8.4647 12.7456 8.23327C12.7456 7.23783 13.1014 6.38822 13.8162 5.68444C14.5277 4.98066 15.3868 4.6256 16.3933 4.6256C16.6272 4.6256 16.826 4.54317 16.9894 4.38149C17.1465 4.22616 17.2298 4.0296 17.2298 3.79818ZM32.093 10.4556C32.093 10.8487 31.9776 11.2481 31.7436 11.6507C30.1089 14.3105 27.9068 16.4377 25.1438 18.0387C22.3776 19.6428 19.4608 20.4417 16.3868 20.4417C13.3129 20.4417 10.3961 19.6396 7.62985 18.0323C4.86684 16.425 2.66798 14.2978 1.03005 11.6507C0.796056 11.2481 0.680664 10.8487 0.680664 10.4556C0.680664 10.0625 0.796056 9.66303 1.03005 9.26041C2.66798 6.61331 4.86684 4.48611 7.62985 2.87883C10.3928 1.27154 13.3129 0.469482 16.3868 0.469482C19.4608 0.469482 22.3776 1.27154 25.1438 2.87883C27.9068 4.48611 30.1089 6.61331 31.7436 9.25724C31.9776 9.66303 32.093 10.0625 32.093 10.4556Z" fill="#16038B"/>
</svg>
