<svg width="197" height="51" viewBox="0 0 197 51" fill="none" xmlns="http://www.w3.org/2000/svg">
<g clip-path="url(#clip0_207_80)">
<g clip-path="url(#clip1_207_80)">
<path d="M43.4592 0.695679H41.2432C41.2412 0.695679 41.2395 0.697243 41.2395 0.699172V50.4334C41.2395 50.4353 41.2412 50.4369 41.2432 50.4369H43.4592C43.4613 50.4369 43.4629 50.4353 43.4629 50.4334V0.699172C43.4629 0.697243 43.4613 0.695679 43.4592 0.695679Z" fill="#0A356B"/>
<g clip-path="url(#clip2_207_80)">
<g clip-path="url(#clip3_207_80)">
<g clip-path="url(#clip4_207_80)">
<g clip-path="url(#clip5_207_80)">
<path d="M62.1429 21.4879L60.513 16.4449H53.5466L51.9457 21.4879H49.2833L55.9248 2.16923H58.1464L64.8053 21.4879H62.1429ZM57.0269 5.56562L54.2253 14.3528H59.8459L57.0269 5.56562ZM76.6149 16.608C76.6149 15.6407 76.3365 14.9016 75.7797 14.3908C75.2228 13.8762 74.2176 13.3762 72.7635 12.891C71.3093 12.4057 70.1979 11.8949 69.4282 11.3585C68.6585 10.8221 68.0825 10.2119 67.6997 9.52717C67.3169 8.84246 67.1254 8.0583 67.1254 7.17415C67.1254 5.6417 67.6707 4.38096 68.7612 3.39193C69.8516 2.3991 71.2803 1.90295 73.0477 1.90295C74.2542 1.90295 75.329 2.15836 76.2727 2.66918C77.2164 3.17619 77.9432 3.88101 78.4537 4.78309C78.9641 5.68517 79.2193 6.67583 79.2193 7.75561H76.6149C76.6149 6.56389 76.3075 5.64007 75.6927 4.98416C75.0819 4.32825 74.2002 4.00056 73.0477 4.00056C71.9995 4.00056 71.1875 4.27608 70.6115 4.82657C70.0355 5.37379 69.7472 6.14165 69.7472 7.13068C69.7472 7.94581 70.0587 8.62672 70.6811 9.17395C71.3035 9.72443 72.2664 10.2157 73.5697 10.6466C75.5999 11.277 77.0517 12.0525 77.9258 12.9725C78.8 13.8925 79.2367 15.0956 79.2367 16.5808C79.2367 18.1458 78.6932 19.3995 77.6068 20.3413C76.5204 21.283 75.043 21.7542 73.1753 21.7542C71.9763 21.7542 70.8685 21.508 69.8516 21.0151C68.8383 20.526 68.0419 19.8359 67.4619 18.9447C66.8778 18.0573 66.586 17.0389 66.586 15.8906H69.1962C69.1962 17.0824 69.5518 18.01 70.2635 18.673C70.9752 19.3397 71.9456 19.6729 73.1753 19.6729C74.3162 19.6729 75.1747 19.3974 75.7507 18.8469C76.3267 18.2996 76.6149 17.5535 76.6149 16.608ZM91.638 16.608C91.638 15.6407 91.3596 14.9016 90.8028 14.3908C90.2459 13.8762 89.2407 13.3762 87.7866 12.891C86.3324 12.4057 85.221 11.8949 84.4513 11.3585C83.6816 10.8221 83.1056 10.2119 82.7228 9.52717C82.34 8.84246 82.1485 8.0583 82.1485 7.17415C82.1485 5.6417 82.6938 4.38096 83.7843 3.39193C84.8747 2.3991 86.3034 1.90295 88.0708 1.90295C89.2773 1.90295 90.3544 2.15836 91.3016 2.66918C92.2453 3.17619 92.9721 3.88101 93.4826 4.78309C93.989 5.68517 94.2424 6.67583 94.2424 7.75561H91.638C91.638 6.56389 91.3324 5.64007 90.7216 4.98416C90.1067 4.32825 89.2233 4.00056 88.0708 4.00056C87.0226 4.00056 86.2106 4.27608 85.6346 4.82657C85.0586 5.37379 84.7703 6.14165 84.7703 7.13068C84.7703 7.94581 85.0818 8.62672 85.7042 9.17395C86.3266 9.72443 87.2895 10.2157 88.5928 10.6466C90.623 11.277 92.0748 12.0525 92.9489 12.9725C93.8231 13.8925 94.2598 15.0956 94.2598 16.5808C94.2598 18.1458 93.7163 19.3995 92.6299 20.3413C91.5435 21.283 90.0661 21.7542 88.1984 21.7542C86.9994 21.7542 85.8916 21.508 84.8748 21.0151C83.8614 20.526 83.065 19.8359 82.485 18.9447C81.9049 18.0573 81.6149 17.0389 81.6149 15.8906H84.2193C84.2193 17.0824 84.5749 18.01 85.2866 18.673C86.0018 19.3397 86.9728 19.6729 88.1984 19.6729C89.3393 19.6729 90.1978 19.3974 90.7738 18.8469C91.3498 18.2996 91.638 17.5535 91.638 16.608ZM107.543 10.4782V12.5595H100.252V19.4066H108.744V21.4879H97.6589V2.16923H108.604V4.26684H100.252V10.4782H107.543ZM124.393 2.16923V4.26684H118.97V21.4879H116.377V4.26684H110.971V2.16923H124.393Z" fill="#0A356B"/>
<path d="M60.7972 45.9636L57.1313 38.1492H53.5061V45.9636H50.8959V26.6449H56.6731C58.6957 26.6449 60.2247 27.1395 61.2612 28.1285C62.3013 29.1137 62.8216 30.5576 62.8216 32.4596C62.8216 33.6513 62.5414 34.693 61.9805 35.5842C61.4161 36.4716 60.6191 37.1401 59.5907 37.5895L63.5872 45.806V45.9636H60.7972ZM53.5061 28.7425V36.0679H56.6499C57.7328 36.0679 58.5988 35.7402 59.2485 35.0843C59.8941 34.4284 60.2172 33.5535 60.2172 32.4596C60.2172 29.9816 59.0182 28.7425 56.6209 28.7425H53.5061ZM76.1741 34.9539V37.0352H68.883V43.8823H77.3806V45.9636H66.2902V26.6449H77.2356V28.7425H68.883V34.9539H76.1741ZM93.993 34.5409V37.9916C93.993 39.6871 93.7494 41.1217 93.2622 42.2955C92.775 43.4655 92.083 44.3784 91.1856 45.0344L94.2599 47.621L92.5023 49.2296L88.7959 46.056C88.2002 46.1717 87.6242 46.2299 87.0673 46.2299C84.9212 46.2299 83.2333 45.5234 82.0036 44.1105C80.7698 42.7014 80.1399 40.7179 80.1126 38.1601V34.6441C80.1126 32.0466 80.7217 30.0196 81.9398 28.5632C83.1578 27.1068 84.8574 26.3787 87.0383 26.3787C89.2384 26.3787 90.942 27.0889 92.1485 28.5089C93.3591 29.9288 93.9739 31.9395 93.993 34.5409ZM91.4003 38.3231V34.6224C91.4003 32.5791 91.0424 31.0592 90.3272 30.0631C89.6155 29.067 88.5192 28.5687 87.0383 28.5687C85.623 28.5687 84.5482 29.074 83.8133 30.0848C83.0824 31.0918 82.713 32.5775 82.7054 34.5409V37.9916C82.7054 39.9735 83.0708 41.4804 83.8017 42.5129C84.5326 43.5492 85.6213 44.0671 87.0673 44.0671C88.5018 44.0671 89.5731 43.5981 90.2808 42.6596C90.9884 41.7211 91.3614 40.2756 91.4003 38.3231ZM107.798 26.6449H110.402V40.3772C110.383 42.2102 109.817 43.6432 108.703 44.6757C107.589 45.712 106.036 46.2299 104.045 46.2299C102.007 46.2299 100.449 45.7229 99.37 44.7083C98.2952 43.6975 97.7477 42.2537 97.7285 40.3772V26.6449H100.304V40.2848C100.304 41.5852 100.6 42.5563 101.191 43.1976C101.783 43.8388 102.734 44.1594 104.045 44.1594C105.368 44.1594 106.323 43.8388 106.911 43.1976C107.502 42.5563 107.798 41.5852 107.798 40.2848V26.6449ZM117.102 26.6449V45.9636H114.509V26.6449H117.102ZM130.652 41.0837C130.652 40.1164 130.373 39.3773 129.816 38.8665C129.26 38.3519 128.254 37.8519 126.8 37.3667C125.346 36.8814 124.235 36.3706 123.465 35.8342C122.695 35.2979 122.119 34.6876 121.736 34.0029C121.358 33.3182 121.168 32.534 121.168 31.6499C121.168 30.1174 121.713 28.8567 122.804 27.8676C123.894 26.8748 125.321 26.3787 127.084 26.3787C128.295 26.3787 129.372 26.6341 130.315 27.1449C131.259 27.6519 131.986 28.3567 132.496 29.2588C133.007 30.1609 133.262 31.1515 133.262 32.2313H130.652C130.652 31.0396 130.346 30.1158 129.735 29.4599C129.12 28.804 128.237 28.4763 127.084 28.4763C126.036 28.4763 125.224 28.7518 124.648 29.3023C124.072 29.8495 123.784 30.6174 123.784 31.6064C123.784 32.4215 124.096 33.1024 124.718 33.6497C125.34 34.2001 126.303 34.6914 127.607 35.1223C129.637 35.7527 131.089 36.5282 131.963 37.4482C132.837 38.3682 133.274 39.5713 133.274 41.0565C133.274 42.6216 132.73 43.8752 131.644 44.817C130.557 45.7587 129.08 46.2299 127.212 46.2299C126.013 46.2299 124.908 45.9837 123.894 45.4908C122.877 45.0017 122.079 44.3116 121.499 43.4204C120.919 42.533 120.629 41.5146 120.629 40.3664H123.233C123.233 41.5581 123.589 42.4857 124.3 43.1487C125.015 43.8155 125.986 44.1486 127.212 44.1486C128.353 44.1486 129.212 43.8731 129.787 43.3226C130.363 42.7753 130.652 42.0292 130.652 41.0837ZM139.376 26.6449V45.9636H136.783V26.6449H139.376ZM155.565 26.6449V28.7425H150.141V45.9636H147.548V28.7425H142.137V26.6449H155.565ZM161.313 26.6449V45.9636H158.72V26.6449H161.313ZM179.271 34.4865V38.0025C179.271 40.6397 178.672 42.6705 177.473 44.0942C176.274 45.518 174.569 46.2299 172.357 46.2299C170.234 46.2299 168.556 45.5381 167.322 44.154C166.092 42.7699 165.454 40.812 165.408 38.2796V34.6441C165.408 32.0645 166.015 30.043 167.229 28.5795C168.447 27.1123 170.147 26.3787 172.328 26.3787C174.501 26.3787 176.195 27.0797 177.409 28.4817C178.62 29.8837 179.24 31.8852 179.271 34.4865ZM176.678 38.2416V34.6224C176.678 32.5791 176.323 31.0592 175.611 30.0631C174.896 29.067 173.801 28.5687 172.328 28.5687C170.905 28.5687 169.826 29.074 169.091 30.0848C168.36 31.0918 167.991 32.5775 167.983 34.5409V38.0025C167.983 39.9767 168.349 41.4804 169.08 42.5129C169.81 43.5492 170.903 44.0671 172.357 44.0671C173.811 44.0671 174.888 43.5888 175.588 42.6324C176.288 41.6798 176.651 40.2158 176.678 38.2416ZM196.742 26.6449V45.9636H194.137L185.883 31.0793V45.9636H183.279V26.6449H185.883L194.166 41.5999V26.6449H196.742Z" fill="#0A356B"/>
</g>
</g>
</g>
</g>
<g clip-path="url(#clip6_207_80)">
<g clip-path="url(#clip7_207_80)">
<path d="M29.206 17.649C36.9043 24.4665 39.6192 34.5027 24.4355 43.3725C26.5722 40.6625 27.7543 37.9865 28.0138 35.3056C28.572 29.5225 24.7231 24.8173 20.4798 20.5939C14.26 14.4027 13.7975 8.43049 19.0235 1.79943C17.9463 10.5208 23.8291 12.8871 29.206 17.649ZM12.4932 49.6071C16.1232 42.4288 16.7641 38.4424 7.68166 30.3931C5.21395 28.206 3.308 25.9777 1.98199 23.7466C0.290874 27.2854 -1.04922 34.7898 3.88618 39.1089C7.22439 42.0301 11.8105 43.7828 12.4932 49.6071ZM19.1972 21.7245C14.1925 16.7421 10.5626 9.75748 17.6071 0.819458C-1.47185 7.79917 -2.5707 19.0359 8.89086 29.1942C18.548 37.7517 18.0473 42.4767 14.0851 50.3132C32.7954 37.3898 26.2411 28.7361 19.1972 21.7245Z" fill="#0A356B"/>
</g>
</g>
</g>
</g>
<defs>
<clipPath id="clip0_207_80">
<rect width="196.297" height="49.7412" fill="white" transform="translate(0.44458 0.695679)"/>
</clipPath>
<clipPath id="clip1_207_80">
<rect width="196.297" height="49.7412" fill="white" transform="translate(0.44458 0.695679)"/>
</clipPath>
<clipPath id="clip2_207_80">
<rect width="147.458" height="49.4937" fill="white" transform="translate(49.2833 0.819458)"/>
</clipPath>
<clipPath id="clip3_207_80">
<rect width="147.458" height="49.4937" fill="white" transform="translate(49.2833 0.819458)"/>
</clipPath>
<clipPath id="clip4_207_80">
<rect width="147.458" height="49.4937" fill="white" transform="translate(49.2833 0.819458)"/>
</clipPath>
<clipPath id="clip5_207_80">
<rect width="147.458" height="49.4937" fill="white" transform="translate(49.2833 0.819458)"/>
</clipPath>
<clipPath id="clip6_207_80">
<rect width="34.9744" height="49.4937" fill="white" transform="translate(0.44458 0.819458)"/>
</clipPath>
<clipPath id="clip7_207_80">
<rect width="34.9744" height="49.4937" fill="white" transform="translate(0.44458 0.819458)"/>
</clipPath>
</defs>
</svg>
