<?xml version="1.0" encoding="utf-8"?>
<!-- Generator: Adobe Illustrator 27.0.1, SVG Export Plug-In . SVG Version: 6.00 Build 0)  -->
<svg version="1.1" id="Layer_1" xmlns="http://www.w3.org/2000/svg" xmlns:xlink="http://www.w3.org/1999/xlink" x="0px" y="0px"
	 viewBox="0 0 798 498" style="enable-background:new 0 0 798 498;" xml:space="preserve">
<style type="text/css">
	.st0{fill-rule:evenodd;clip-rule:evenodd;fill:#E9EFF8;}
	.st1{fill-rule:evenodd;clip-rule:evenodd;fill:#BCC9E7;}
	.st2{fill-rule:evenodd;clip-rule:evenodd;fill:#FFFFFF;}
	.st3{fill-rule:evenodd;clip-rule:evenodd;fill:#D0D9EE;}
	.st4{fill-rule:evenodd;clip-rule:evenodd;fill:#F0948F;}
	.st5{fill-rule:evenodd;clip-rule:evenodd;fill:#6998D0;}
	.st6{fill-rule:evenodd;clip-rule:evenodd;fill:#F4AE7C;}
	.st7{fill-rule:evenodd;clip-rule:evenodd;fill:#0F3970;}
	.st8{fill-rule:evenodd;clip-rule:evenodd;fill:#406FB5;}
	.st9{fill-rule:evenodd;clip-rule:evenodd;fill:#142D4D;}
</style>
<g>
	<path class="st0" d="M368.55,89.1c50.16,0,44.43,88.58,80.64,115.58c47.92,35.74,130.37,18.04,130.37,79.38
		c0,107.67-106.94,146.68-223.48,146.68c-116.54,0-215.98-59.72-181.28-167.1C209.5,156.24,252,89.1,368.55,89.1z"/>
	<path class="st1" d="M253.79,106.12c-7.79,5.32-18.42,3.32-23.74-4.47c-5.32-7.79-3.32-18.42,4.47-23.74
		c7.79-5.32,18.42-3.32,23.74,4.47C263.58,90.17,261.58,100.79,253.79,106.12L253.79,106.12z M280.61,100.1L280.61,100.1
		L280.61,100.1z M229.1,50.08L229.1,50.08L229.1,50.08z M206.24,84.27L206.24,84.27L206.24,84.27z M237,127.89
		c3.37,0.67,6.85,0.87,10.31,0.58l4.51,7.43l7.4-1.96l0.24-8.7l1.79-0.88l6.88-4.71l8.02,3.37l4.29-5.16l0.14-0.19l0.4-0.59
		l-4.91-7.18l0.76-1.43l2.96-8.19l0.81-0.19l7.65-1.8c0.36-2.53,0.51-5.08,0.43-7.65l-8.18-2.92c-0.4-3.38-1.28-6.75-2.64-9.98
		l5.67-6.58l-4.15-6.44l-8.34,2.45c-2.38-2.59-5.08-4.77-8-6.53l0.72-8.66c-2.3-1.13-4.7-2.05-7.14-2.76l-5.31,6.89l-10.3-0.58
		l-4.51-7.43c-2.49,0.43-4.97,1.08-7.4,1.96l-0.24,8.69l-8.67,5.59L212.17,61l-4.84,5.94l4.91,7.17c-1.7,3.03-2.94,6.28-3.72,9.62
		l-2.27,0.54l-6.19,1.46c-0.36,2.52-0.5,5.08-0.43,7.65l8.18,2.92c0.4,3.38,1.27,6.74,2.65,9.98l-5.67,6.58l4.15,6.44l8.33-2.45
		c2.38,2.58,5.08,4.77,8,6.53l-0.72,8.66c2.31,1.12,4.69,2.05,7.14,2.76L237,127.89z"/>
	<path class="st2" d="M275.22,95.23c-0.17,0.11-0.38,0.17-0.59,0.15c-0.49-0.05-0.86-0.48-0.81-0.98
		c0.64-6.78-1.12-13.62-4.97-19.25c-1.84-2.7-4.09-5.05-6.69-6.97c-0.4-0.3-0.48-0.86-0.18-1.26c0.3-0.4,0.86-0.48,1.26-0.18
		c2.76,2.05,5.14,4.54,7.1,7.41c4.08,5.98,5.96,13.24,5.28,20.43C275.58,94.85,275.43,95.08,275.22,95.23z"/>
	<path class="st2" d="M249.87,62.6c-0.18,0.12-0.41,0.18-0.65,0.15c-3.97-0.62-7.95-0.44-11.82,0.56c-0.48,0.12-0.97-0.17-1.1-0.65
		c-0.12-0.48,0.17-0.97,0.65-1.1c4.11-1.06,8.33-1.25,12.55-0.59c0.49,0.08,0.82,0.54,0.75,1.03
		C250.21,62.25,250.07,62.46,249.87,62.6z"/>
	<path class="st2" d="M222.57,72.42c-0.33,0.23-0.79,0.21-1.11-0.07c-0.37-0.33-0.41-0.9-0.08-1.27c1.69-1.92,3.64-3.63,5.76-5.08
		c0.41-0.28,0.97-0.18,1.25,0.23c0.28,0.41,0.18,0.97-0.24,1.25c-2.01,1.37-3.83,2.98-5.43,4.79
		C222.69,72.33,222.64,72.38,222.57,72.42z"/>
	<path class="st3" d="M286.38,444.71c56.08,0,101.54,6.62,101.54,14.8c0,8.17-45.46,14.8-101.54,14.8s-101.54-6.62-101.54-14.8
		C184.85,451.33,230.31,444.71,286.38,444.71z"/>
	<path class="st3" d="M318.63,61.19h217.7c17,0,30.9,13.9,30.9,30.9v299.24c0,17-13.91,30.9-30.9,30.9h-217.7
		c-16.99,0-30.9-13.9-30.9-30.9V92.09C287.74,75.09,301.64,61.19,318.63,61.19z"/>
	<path class="st0" d="M318.63,69.92h217.7c12.19,0,22.17,9.97,22.17,22.17v299.24c0,12.19-9.98,22.17-22.17,22.17h-217.7
		c-12.19,0-22.17-9.97-22.17-22.17V92.09C296.47,79.9,306.44,69.92,318.63,69.92z"/>
	
		<rect x="313.33" y="76.23" transform="matrix(0.9969 -0.0785 0.0785 0.9969 -16.7921 33.7939)" class="st2" width="216.64" height="308.7"/>
	<path class="st0" d="M343.67,268.83l167.19-13.22c2.26-0.18,4.25,1.52,4.42,3.78l0,0c0.18,2.25-1.53,4.25-3.78,4.42l-167.19,13.22
		c-2.25,0.18-4.25-1.52-4.42-3.78l0,0C339.72,270.99,341.42,269,343.67,268.83L343.67,268.83z M344.82,283.44
		c-2.26,0.18-3.78,2.16-3.78,4.42v0c0,2.26,2.17,3.95,4.42,3.78l113.84-9.02c2.25-0.18,3.96-2.17,3.78-4.42l0,0
		c-0.18-2.26-2.17-3.96-4.42-3.78L344.82,283.44z"/>
	<path class="st0" d="M346.81,308.78L514,295.56c2.25-0.18,4.25,1.52,4.42,3.78l0,0c0.18,2.25-1.53,4.25-3.78,4.42l-167.19,13.21
		c-2.25,0.18-4.42-1.51-4.42-3.78h0C343.04,310.94,344.56,308.95,346.81,308.78L346.81,308.78z M347.97,323.39
		c-2.25,0.18-3.96,2.17-3.78,4.42l0,0c0.18,2.26,2.17,3.96,4.42,3.78l113.84-9.02c2.25-0.18,3.78-2.16,3.78-4.42v0
		c0-2.26-2.16-3.95-4.42-3.78L347.97,323.39z"/>
	<path class="st0" d="M349.96,348.73l167.19-13.22c2.26-0.18,4.42,1.52,4.42,3.78l0,0c0,2.26-1.52,4.25-3.78,4.42l-167.19,13.22
		c-2.25,0.18-4.24-1.52-4.42-3.78l0,0C346.01,350.9,347.71,348.91,349.96,348.73L349.96,348.73z M351.11,363.34
		c-2.26,0.18-3.95,2.17-3.78,4.42l0,0c0.18,2.26,2.17,3.96,4.42,3.78l113.84-9.02c2.25-0.18,3.96-2.17,3.78-4.42l0,0
		c-0.18-2.26-2.17-3.96-4.42-3.78L351.11,363.34z"/>
	<path class="st1" d="M373.41,47.56h38.29v-8.07c0-8.68,7.1-15.79,15.79-15.79l0,0c8.68,0,15.79,7.11,15.79,15.79v8.07h38.28
		c5.25,0,9.54,4.3,9.54,9.54v18.18c0,5.25-4.3,9.54-9.54,9.54H373.41c-5.25,0-9.54-4.3-9.54-9.54V57.1
		C363.87,51.85,368.16,47.56,373.41,47.56L373.41,47.56z M427.48,33.13c-3.86,0-6.99,3.13-6.99,6.99c0,3.86,3.13,6.99,6.99,6.99
		c3.86,0,6.99-3.13,6.99-6.99C434.47,36.26,431.34,33.13,427.48,33.13z"/>
	<path class="st3" d="M358.63,214.66h24.74c0,13.57-11.17,24.74-24.74,24.74c-13.57,0-24.73-11.17-24.73-24.74
		c0-13.57,11.17-24.74,24.73-24.74V214.66z"/>
	<path class="st1" d="M387.51,211.19c0-13.66-11.08-24.74-24.74-24.74v24.74H387.51z"/>
	<path class="st4" d="M338.03,211.19c0,13.66,11.08,24.74,24.74,24.74C349.2,235.93,338.03,224.76,338.03,211.19z"/>
	<path class="st4" d="M362.77,186.46c-13.66,0-24.74,11.08-24.74,24.74C338.03,197.62,349.2,186.46,362.77,186.46z"/>
	<path class="st4" d="M362.77,235.93c13.66,0,24.74-11.08,24.74-24.74C387.51,224.76,376.34,235.93,362.77,235.93z"/>
	<path class="st3" d="M387.37,154.57l-12.58-7.69c-2.92,4.76-8.17,7.94-14.17,7.94c-0.87,0-1.73-0.07-2.56-0.2l-2.27,14.57
		c1.58,0.25,3.19,0.37,4.84,0.37C371.94,169.56,381.85,163.56,387.37,154.57z"/>
	<path class="st3" d="M388.24,123.38c-5.52,2.89-5.18,2.69-13.01,6.93c1.27,2.35,2,5.04,2,7.9c0,3.18-0.89,6.14-2.44,8.67
		c10.13,6.19,10.94,6.69,12.59,7.67c2.91-4.76,4.59-10.35,4.59-16.34C391.97,132.84,390.62,127.79,388.24,123.38z"/>
	<path class="st3" d="M331.2,127.37l13.84,5.1c2.34-6.34,8.43-10.86,15.59-10.86c6.31,0,11.8,3.52,14.61,8.71l12.97-7.01
		c-5.3-9.79-15.67-16.44-27.58-16.44l0,0C347.12,106.86,335.61,115.4,331.2,127.37z"/>
	<path class="st3" d="M355.78,169.19l2.27-14.57c-7.96-1.23-14.04-8.11-14.04-16.41c0-2.02,0.36-3.95,1.02-5.74l-13.84-5.1
		c-1.25,3.38-1.93,7.03-1.93,10.84C329.27,153.88,340.77,166.86,355.78,169.19z"/>
	<path class="st2" d="M330.83,128.41l13.85,5.1c0.21-0.71,0.46-1.4,0.76-2.07l-13.85-5.1C331.32,127.02,331.06,127.71,330.83,128.41
		z"/>
	<path class="st2" d="M387.94,153.6c-0.88-0.52-1.53-0.91-3.52-2.13l-9.08-5.55c-0.34,0.66-0.73,1.28-1.15,1.88
		c4.62,2.82,7.31,4.47,9.02,5.51l3.57,2.18C387.18,154.88,387.57,154.25,387.94,153.6L387.94,153.6z M375.72,131.3l5.03-2.72
		c2.63-1.42,3.71-1.98,6.38-3.38l1.62-0.84c-0.34-0.69-0.7-1.36-1.09-2.02l-7.96,4.3c-1.23,0.66-2.8,1.51-5.03,2.72
		C375.06,129.98,375.41,130.63,375.72,131.3L375.72,131.3z M359.15,154.75c-0.74-0.06-1.47-0.18-2.18-0.34L354.69,169
		c0.72,0.14,1.44,0.25,2.18,0.34L359.15,154.75z"/>
	<path class="st0" d="M407.53,108.33l84.88-6.77c2.48-0.2,4.66,1.67,4.86,4.14l4.08,51.13c0.2,2.47-1.67,4.66-4.14,4.86l-84.88,6.77
		c-2.47,0.2-4.66-1.67-4.86-4.14l-4.08-51.13C403.19,110.72,405.06,108.53,407.53,108.33z"/>
	<path class="st3" d="M419.12,141.5l15.95-10.21c-0.03-0.12-0.05-0.24-0.06-0.37c-0.09-1.08,0.72-2.03,1.8-2.11
		c1.08-0.09,2.02,0.72,2.11,1.8c0,0.06,0,0.13,0,0.19l6.76,2.23c0.33-0.46,0.84-0.77,1.44-0.82c0.23-0.02,0.46,0,0.68,0.06
		l6.91-10.83c-0.26-0.3-0.43-0.68-0.46-1.11c-0.09-1.08,0.72-2.03,1.8-2.11c1.08-0.09,2.03,0.72,2.11,1.8
		c0.02,0.32-0.03,0.63-0.15,0.91l7.9,6.61c0.26-0.17,0.57-0.28,0.91-0.31c0.22-0.02,0.44,0,0.64,0.05l6.91-11.3
		c-0.27-0.31-0.45-0.7-0.48-1.14c-0.09-1.08,0.72-2.03,1.8-2.11c1.08-0.09,2.03,0.72,2.11,1.8c0.01,0.17,0.01,0.33-0.02,0.49
		l7.13,3.63c0.32-0.33,0.76-0.55,1.25-0.59c1.08-0.09,2.03,0.72,2.11,1.8c0.09,1.08-0.72,2.03-1.8,2.11
		c-1.08,0.09-2.03-0.72-2.11-1.8c-0.01-0.17,0-0.33,0.02-0.49l-7.13-3.63c-0.32,0.33-0.76,0.55-1.25,0.59
		c-0.22,0.02-0.44,0-0.64-0.05l-6.91,11.3c0.27,0.31,0.45,0.7,0.48,1.14c0.09,1.08-0.72,2.03-1.8,2.11
		c-1.08,0.09-2.02-0.72-2.11-1.8c-0.02-0.32,0.03-0.63,0.15-0.91l-7.9-6.61c-0.26,0.17-0.58,0.28-0.91,0.31
		c-0.23,0.02-0.46,0-0.67-0.06l-6.91,10.83c0.25,0.3,0.42,0.69,0.46,1.11c0.09,1.08-0.72,2.02-1.8,2.11
		c-1.08,0.09-2.02-0.72-2.11-1.8c0-0.06-0.01-0.13,0-0.19l-6.76-2.22c-0.32,0.46-0.84,0.77-1.44,0.82
		c-0.54,0.04-1.04-0.13-1.42-0.46l-15.95,10.21c0.03,0.12,0.05,0.24,0.06,0.37c0.09,1.08-0.72,2.03-1.8,2.11
		c-1.08,0.09-2.03-0.72-2.11-1.8c-0.09-1.08,0.72-2.02,1.8-2.11C418.24,141,418.74,141.18,419.12,141.5z"/>
	<path class="st3" d="M415.24,151.43l6.54-0.52l1,12.48l-6.54,0.52L415.24,151.43L415.24,151.43z M483.63,127.51l6.54-0.52
		l2.46,30.82l-6.54,0.52L483.63,127.51L483.63,127.51z M473.28,123.66l6.55-0.52l2.83,35.47l-6.55,0.52L473.28,123.66L473.28,123.66
		z M464.51,139.62l6.55-0.52l1.62,20.3l-6.55,0.52L464.51,139.62L464.51,139.62z M453.65,129.41l6.55-0.52l2.5,31.31l-6.55,0.52
		L453.65,129.41L453.65,129.41z M444.69,142.93l6.55-0.52l1.48,18.59l-6.55,0.52L444.69,142.93L444.69,142.93z M434.33,138.96
		l6.54-0.52l1.87,23.35l-6.55,0.52L434.33,138.96L434.33,138.96z M424.89,146.6l6.54-0.52l1.32,16.51l-6.54,0.52L424.89,146.6z"/>
	<path class="st3" d="M499.13,218.09l-38.28-4.51l-30.87,12.99c7.17,4.91,18.33,8.06,30.87,8.05
		C479.59,234.62,495.26,227.54,499.13,218.09z"/>
	<path class="st3" d="M423.57,219.54l30.87-12.99l-16.49-19.08c-13.41,3.36-22.7,10.66-22.7,19.12
		C415.25,211.47,418.36,215.97,423.57,219.54z"/>
	<path class="st3" d="M464.87,203.54l38.28,4.51c0.6-1.46,0.91-2.98,0.91-4.54c0-10.54-14.43-19.26-33.25-20.78L464.87,203.54z"/>
	<path class="st3" d="M459.27,208.28l5.94-20.81c-1.94-0.16-3.92-0.24-5.94-0.24c-5.89,0-11.48,0.71-16.49,1.96L459.27,208.28z"/>
	<path class="st0" d="M423.57,219.54c-5.21-3.57-8.32-8.07-8.32-12.96v7.66c0,4.89,3.11,9.39,8.32,12.96V219.54z"/>
	<path class="st0" d="M499.13,218.09c-3.86,9.44-19.54,16.52-38.28,16.54c-12.53,0.01-23.69-3.14-30.87-8.05v7.66
		c7.17,4.91,18.33,8.06,30.87,8.05c18.75-0.01,34.42-7.09,38.28-16.54V218.09z"/>
	<path class="st0" d="M503.15,208.05v7.66c0.6-1.46,0.91-2.98,0.91-4.54v-7.66C504.07,205.07,503.75,206.59,503.15,208.05z"/>
	<polygon class="st0" points="503.15,208.05 464.87,203.54 464.87,210.71 503.15,215.71 	"/>
	<polygon class="st0" points="423.57,227.2 454.44,213.81 454.44,206.54 423.57,219.54 	"/>
	<polygon class="st0" points="462.06,213.73 464.87,203.58 464.87,203.54 465.21,202.34 465.21,187.47 459.27,208.28 459.27,214.25 
		460.84,213.59 	"/>
	<polygon class="st0" points="459.27,208.28 442.78,189.19 442.78,193.05 454.44,206.54 454.44,210.3 458.42,214.61 459.27,214.25 	
		"/>
	<path class="st3" d="M508.82,244.13h100.61c7.27,0,14.93,7.67,14.93,14.93v171.36c0,7.25-5.96,14.35-13.22,14.35H507.68
		c-7.26,0-13.22-5.95-13.22-13.21V257.34C494.46,250.08,501.55,244.13,508.82,244.13z"/>
	<path class="st0" d="M507.68,250.55h99.48c5.62,0,10.22,4.6,10.22,10.22v170.79c0,5.62-4.6,10.22-10.22,10.22h-99.48
		c-5.62,0-10.22-4.6-10.22-10.22V260.77C497.46,255.15,502.06,250.55,507.68,250.55z"/>
	<path class="st3" d="M511.66,311.21h19.53c1.37,0,2.5,1.13,2.5,2.5v5.45c0,1.37-1.13,2.5-2.5,2.5h-19.53c-1.38,0-2.5-1.12-2.5-2.5
		v-5.45C509.16,312.33,510.28,311.21,511.66,311.21L511.66,311.21z M583.64,311.21h19.54c1.37,0,2.5,1.13,2.5,2.5v5.45
		c0,1.37-1.12,2.5-2.5,2.5h-19.54c-1.37,0-2.5-1.12-2.5-2.5v-5.45C581.14,312.33,582.26,311.21,583.64,311.21L583.64,311.21z
		 M547.65,311.21h19.53c1.37,0,2.5,1.13,2.5,2.5v5.45c0,1.37-1.13,2.5-2.5,2.5h-19.53c-1.37,0-2.5-1.12-2.5-2.5v-5.45
		C545.15,312.33,546.27,311.21,547.65,311.21z"/>
	<path class="st3" d="M584.27,333.57h18.27c1.72,0,3.13,1.41,3.13,3.13v11.62c0,1.72-1.41,3.13-3.13,3.13h-18.27
		c-1.72,0-3.13-1.41-3.13-3.13V336.7C581.14,334.97,582.55,333.57,584.27,333.57L584.27,333.57z M512.29,333.57h18.26
		c1.72,0,3.13,1.41,3.13,3.13v11.62c0,1.72-1.41,3.13-3.13,3.13h-18.26c-1.72,0-3.13-1.41-3.13-3.13V336.7
		C509.16,334.97,510.57,333.57,512.29,333.57L512.29,333.57z M548.28,333.57h18.27c1.72,0,3.13,1.41,3.13,3.13v11.62
		c0,1.72-1.41,3.13-3.13,3.13h-18.27c-1.72,0-3.13-1.41-3.13-3.13V336.7C545.15,334.97,546.56,333.57,548.28,333.57z"/>
	<path class="st3" d="M584.27,360.23h18.27c1.72,0,3.13,1.41,3.13,3.13v11.62c0,1.72-1.41,3.13-3.13,3.13h-18.27
		c-1.72,0-3.13-1.41-3.13-3.13v-11.62C581.14,361.64,582.55,360.23,584.27,360.23L584.27,360.23z M512.29,360.23h18.26
		c1.72,0,3.13,1.41,3.13,3.13v11.62c0,1.72-1.41,3.13-3.13,3.13h-18.26c-1.72,0-3.13-1.41-3.13-3.13v-11.62
		C509.16,361.64,510.57,360.23,512.29,360.23L512.29,360.23z M548.28,360.23h18.27c1.72,0,3.13,1.41,3.13,3.13v11.62
		c0,1.72-1.41,3.13-3.13,3.13h-18.27c-1.72,0-3.13-1.41-3.13-3.13v-11.62C545.15,361.64,546.56,360.23,548.28,360.23z"/>
	<path class="st3" d="M512.29,386.89h18.26c1.72,0,3.13,1.41,3.13,3.13v11.62c0,1.72-1.41,3.13-3.13,3.13h-18.26
		c-1.72,0-3.13-1.41-3.13-3.13v-11.62C509.16,388.31,510.57,386.89,512.29,386.89L512.29,386.89z M548.28,386.89h18.27
		c1.72,0,3.13,1.41,3.13,3.13v11.62c0,1.72-1.41,3.13-3.13,3.13h-18.27c-1.72,0-3.13-1.41-3.13-3.13v-11.62
		C545.15,388.31,546.56,386.89,548.28,386.89z"/>
	<path class="st3" d="M584.27,386.89h18.27c1.72,0,3.13,1.41,3.13,3.13v38.29c0,1.72-1.41,3.13-3.13,3.13h-18.27
		c-1.72,0-3.13-1.41-3.13-3.13v-38.29C581.14,388.31,582.55,386.89,584.27,386.89L584.27,386.89z M512.29,413.56h18.26
		c1.72,0,3.13,1.41,3.13,3.13v11.62c0,1.72-1.41,3.13-3.13,3.13h-18.26c-1.72,0-3.13-1.41-3.13-3.13v-11.62
		C509.16,414.97,510.57,413.56,512.29,413.56L512.29,413.56z M548.28,413.56h18.27c1.72,0,3.13,1.41,3.13,3.13v11.62
		c0,1.72-1.41,3.13-3.13,3.13h-18.27c-1.72,0-3.13-1.41-3.13-3.13v-11.62C545.15,414.97,546.56,413.56,548.28,413.56z"/>
	<path class="st1" d="M502.7,302.76h109.44v-41.99c0-2.74-2.24-4.98-4.98-4.98h-99.48c-2.74,0-4.98,2.24-4.98,4.98V302.76z"/>
	<path class="st2" d="M510.94,270.54h92.83c0.95,0,1.73,0.78,1.73,1.73v13.12c0,0.95-0.78,1.73-1.73,1.73h-92.83
		c-0.95,0-1.73-0.78-1.73-1.73v-13.12C509.21,271.31,509.99,270.54,510.94,270.54z"/>
	<path class="st0" d="M571.63,273.86h28.13c0.41,0,0.75,0.34,0.75,0.74v8.44c0,0.41-0.34,0.74-0.75,0.74h-28.13
		c-0.41,0-0.75-0.34-0.75-0.74v-8.44C570.88,274.2,571.22,273.86,571.63,273.86L571.63,273.86z M556.38,273.86h8.01
		c0.39,0,0.71,0.32,0.71,0.71v8.51c0,0.39-0.32,0.71-0.71,0.71h-8.01c-0.39,0-0.71-0.32-0.71-0.71v-8.51
		C555.67,274.18,555.99,273.86,556.38,273.86z"/>
	<path class="st5" d="M213.69,173.25c4.22-3.95,15.99-8.3,23-10.44c7.33-0.95,15.33-1.36,24.02-1.23
		c14.69-0.14,30.47,0.01,47.35,0.46c16.66-8.11,21.08-8.81,29.52-12.64c2.5-1.13,7.03-3.51,10.65-5.47
		c1.67,0.84,3.79,4.56,4.46,7.71c-17.71,17.01-29.06,23.75-35.53,27.46c-12.52,3.38-24.55,5.22-33.73,6.12
		c-2.62,16.85-4.61,33.09-5.97,48.72c2.79,16.48,4.11,27.7,3.98,33.66c-25.74,3.8-46.39,3.91-61.96,0.31
		c0.45-4.72,2.39-11.34,3.57-16.41c-1.7-21.13-4.41-34.86-5.87-44.63c-4.79,9.67-9.29,16.94-13.5,21.81
		c3.3,8.53,6.41,18.99,9.34,31.38c-1.82,2.39-4.41,4.02-7.78,4.86c-4.09-7.1-12.98-23.36-15.3-35.48
		C188.28,219.75,207.76,180.86,213.69,173.25z"/>
	<path class="st6" d="M257.41,158.87c-1.58-0.74-10.17-0.59-18.76,1.18c0.93-1.39,1.65-3.21,2.17-5.44
		c15.32-2.3,13.82-6.09,13.26-7.82c-3.09-8.23-4.96-13.42-2.74-15.89c1.14,0.54,3.55,1.79,4.49,5.4c0.96-0.58,2.2-1.36,2.36-2.46
		c0.36-3.29,0.25-10.14,4.02-10.71c0.75,3.01,1.4,6.21,1.98,9.59c2.15,1.72,2.37,8.65,1.07,16.75c1.25,4.47-1.38,7.13-7.87,8
		L257.41,158.87z"/>
	<path class="st7" d="M254.07,146.79c0.56,1.73,2.06,5.52-13.26,7.82c-6.85-1.04-12.92-6.68-13.9-9.24
		c-8.95-14.96-0.63-22.13,3.9-24.85c1-15.51,24.26-3.48,34.92-11.67c4.87,5.83-0.09,13.91-3.54,14.28
		c-3.77,0.57-3.65,7.43-4.02,10.71c-0.16,1.1-1.39,1.88-2.36,2.46c-0.94-3.62-3.35-4.87-4.49-5.4
		C249.11,133.37,250.98,138.56,254.07,146.79z"/>
	<path class="st8" d="M238.64,160.05c-0.85,0.8-1.7,1.77-2.48,2.92l0.53-0.16c7.13-0.93,14.9-1.34,23.31-1.23
		c-0.84-1.11-1.76-2.05-2.6-2.7C255.83,158.13,247.23,158.29,238.64,160.05z"/>
	<path class="st6" d="M352.52,150.98c4.41-2.17,7.82-3.64,10.25-5.93c0.88-2.79,2.59-2.9,2.14-5.34c4.06-4.77,5-4.87,6.89-5.75
		c-1.66-2.67-5.45-0.52-11.6,5.46c-4.18,2.45-5.96,1.93-5.35-1.57c2.51-2.43,2.47-4.47,1.72-5.59c-0.34,0.31-1.7,1.95-4.12,4.48
		c-1.72,2.72-2.98,5.28-2.93,6.64c-0.05,0.47-0.21,0.85-0.44,1.2C350.43,145.88,351.86,148.53,352.52,150.98z"/>
	<path class="st6" d="M212.23,261c1.76,2.19,3.92,3.32,7.28,6.54l-0.03,0.35l0.52,0.12c0.75,0.74,1.55,1.58,2.43,2.56
		c-1.76,1.42-3.99,0.45-6.71-2.91c-0.13,3.72,0.84,6.49,2.91,8.31c1.02,1.17,1.85,2.07,2.48,2.71c-1.94,3.32-6,2.01-12.17-3.93
		c-1.23-2.31-1.1-4.6-1.83-6.7c-0.29-1.06-0.63-2.11-1.12-3.35c2.56-0.76,4.63-1.99,6.23-3.7L212.23,261z"/>
	<path class="st7" d="M221.52,268.35c-3.08,20.85-4.52,53.72-4.32,85.43c-2.97,15.05-2.82,39.11,0.46,87.9
		c5.8,1.17,10.82,1.4,15.07,0.69c7.54-45.53,10.42-69.25,8.64-86.91c2.31-12.67,5.47-35.94,9.49-54.06
		c4.02,18.12,7.18,41.39,9.49,54.06c-1.78,17.65,1.1,41.38,8.65,86.91c4.25,0.71,9.27,0.48,15.07-0.69
		c3.28-48.79,3.43-72.85,0.46-87.9c0.2-31.99-1.26-65.17-4.4-85.99C256.1,271.24,236.57,271.43,221.52,268.35z"/>
	<path class="st9" d="M271.52,451.14c-1.44,1.12-1.78,6.32-0.62,10.28c4.73,2.11,9.34,1.56,13.84-0.63
		c2.28-0.88,5.02-2.38,4.96-4.02c-0.1-3.1-0.17-3.17-6.55-6.48c0.09,0.63,0.2,1.21,0.31,1.75l0,0c-0.28,0.73-0.84,1.28-1.91,0.6
		c-1.17-0.77-0.77-3.24-4.09-3.3c-2.74-0.04-2.77,2.58-4.11,3.46C271.91,453.82,271.59,452.29,271.52,451.14z"/>
	<path class="st9" d="M230.35,451.12c1.44,1.12,1.78,6.32,0.62,10.28c-4.73,2.11-9.34,1.56-13.84-0.63
		c-0.69-0.33-3.44-1.22-3.66-1.97c-0.77-2.66-0.1-6.2,5.24-8.53c-0.09,0.63-0.2,1.21-0.31,1.75l0,0c0.28,0.73,0.84,1.28,1.91,0.6
		c1.16-0.76,0.77-3.24,4.09-3.3c2.74-0.04,2.77,2.58,4.11,3.46C229.96,453.81,230.28,452.28,230.35,451.12z"/>
	<path class="st6" d="M271.42,442.66c0.5,3.87,0.63,7.18,0.41,9.94c0.26,0.53,0.72,0.77,1.56,0.19c1.34-0.88,1.37-3.5,4.11-3.46
		c3.31,0.06,2.92,2.53,4.09,3.3c1.06,0.68,1.63,0.13,1.91-0.6c-0.51-2.38-0.82-5.74-0.92-10.08
		C278.43,442.69,274.72,442.93,271.42,442.66z"/>
	<path class="st6" d="M230.46,442.65c-0.5,3.87-0.63,7.18-0.41,9.95c-0.26,0.53-0.72,0.77-1.56,0.19c-1.34-0.88-1.37-3.5-4.11-3.46
		c-3.32,0.06-2.92,2.53-4.09,3.3c-1.07,0.69-1.63,0.13-1.91-0.6c0.51-2.38,0.82-5.74,0.92-10.08
		C223.44,442.68,227.15,442.91,230.46,442.65z"/>
	<path class="st8" d="M283.42,185.22c-6.54,20.91-10.93,37.07-13.17,48.48c-8.37,5.82-14.25,10.1-17.62,12.85
		c11.85-6.68,19.14-10.83,21.86-12.45c2.79,6.91,5.1,18.08,6.94,33.5c0.14-5.96-1.19-17.18-3.98-33.66
		C278.81,218.3,280.8,202.06,283.42,185.22L283.42,185.22z M311.92,160.18c2.31,1.18,4.12,2.5,5.42,3.98
		c-2.81-1.09-5.9-1.8-9.28-2.12C309.42,161.37,310.71,160.76,311.92,160.18L311.92,160.18z M215.96,198.83
		c0.1,1.69,0.5,4.37,1.22,8.04c1.46,9.77,4.17,23.49,5.87,44.63c-1.19,5.07-3.13,11.69-3.57,16.41c0.33,0.07,0.65,0.15,0.99,0.22
		c0.72-3.45,2.31-8.25,4.77-14.39c1,0.69,3.84,1.73,8.55,3.11c-2.06-1.83-4.12-3.59-6.16-5.3
		C224,230.96,220.12,213.38,215.96,198.83z"/>
	<path class="st3" d="M573.6,179.11c15.3,0,27.7,12.4,27.7,27.7c0,15.3-12.4,27.7-27.7,27.7c-15.3,0-27.7-12.4-27.7-27.7
		C545.89,191.51,558.3,179.11,573.6,179.11z"/>
	<path class="st2" d="M573.6,183.18c13.05,0,23.62,10.58,23.62,23.62c0,13.05-10.58,23.62-23.62,23.62
		c-13.05,0-23.62-10.58-23.62-23.62C549.97,193.76,560.55,183.18,573.6,183.18z"/>
	<path class="st1" d="M573.6,184.81c12.15,0,21.99,9.85,21.99,21.99s-9.85,21.99-21.99,21.99s-21.99-9.85-21.99-21.99
		S561.45,184.81,573.6,184.81z"/>
	<path class="st2" d="M580.28,195.46c-1.13-0.58-2.73-1.16-4.91-1.23v-3.62h-3.34v3.89c-3.62,0.82-5.77,3.41-5.77,6.75
		c0,3.45,2.35,5.22,5.66,6.79c3.14,1.37,4.26,2.49,4.26,4.23c0,1.71-1.19,3.04-3.65,3.04c-2.15,0-4.16-0.75-5.49-1.53l-1.02,3.82
		c1.3,0.75,3.51,1.43,5.7,1.5V223h3.34v-4.16c3.85-0.75,6.11-3.55,6.11-7.03c0-3.55-1.84-5.46-5.87-7.27
		c-2.7-1.33-4.16-2.28-4.16-3.85c0-1.33,1.16-2.73,3.45-2.73c1.98,0,3.65,0.72,4.67,1.23L580.28,195.46z"/>
	<path class="st3" d="M608.18,144.07c12.17,0,22.03,9.87,22.03,22.03c0,12.17-9.86,22.03-22.03,22.03
		c-12.17,0-22.03-9.87-22.03-22.03C586.15,153.93,596.02,144.07,608.18,144.07z"/>
	<path class="st2" d="M608.18,147.31c10.37,0,18.79,8.41,18.79,18.79c0,10.38-8.41,18.79-18.79,18.79
		c-10.38,0-18.79-8.41-18.79-18.79C589.4,155.72,597.81,147.31,608.18,147.31z"/>
	<path class="st1" d="M608.18,148.61c9.66,0,17.49,7.83,17.49,17.49c0,9.66-7.83,17.49-17.49,17.49c-9.66,0-17.49-7.83-17.49-17.49
		C590.69,156.44,598.52,148.61,608.18,148.61z"/>
	<path class="st2" d="M613.5,157.08c-0.89-0.46-2.17-0.92-3.91-0.98v-2.88h-2.66v3.09c-2.88,0.65-4.59,2.71-4.59,5.37
		c0,2.74,1.87,4.15,4.5,5.4c2.49,1.08,3.39,1.98,3.39,3.36c0,1.36-0.95,2.42-2.9,2.42c-1.71,0-3.31-0.6-4.37-1.22l-0.81,3.04
		c1.03,0.6,2.8,1.14,4.53,1.2v3.09h2.66v-3.31c3.07-0.6,4.86-2.82,4.86-5.59c0-2.82-1.46-4.34-4.67-5.78
		c-2.14-1.06-3.31-1.82-3.31-3.07c0-1.06,0.92-2.17,2.74-2.17c1.58,0,2.91,0.57,3.72,0.98L613.5,157.08z"/>
	<path class="st3" d="M569,134.01c9.54,0,17.27,7.73,17.27,17.27c0,9.54-7.73,17.27-17.27,17.27c-9.54,0-17.27-7.73-17.27-17.27
		C551.73,141.74,559.47,134.01,569,134.01z"/>
	<path class="st2" d="M569,136.55c8.13,0,14.73,6.59,14.73,14.73c0,8.13-6.59,14.73-14.73,14.73s-14.73-6.59-14.73-14.73
		C554.27,143.14,560.87,136.55,569,136.55z"/>
	<path class="st1" d="M569,137.57c7.57,0,13.71,6.14,13.71,13.71c0,7.57-6.14,13.71-13.71,13.71c-7.57,0-13.71-6.14-13.71-13.71
		C555.29,143.71,561.43,137.57,569,137.57z"/>
	<path class="st2" d="M573.17,144.2c-0.7-0.36-1.7-0.72-3.06-0.76v-2.26h-2.08v2.43c-2.26,0.51-3.59,2.13-3.59,4.21
		c0,2.15,1.47,3.26,3.53,4.23c1.96,0.85,2.66,1.55,2.66,2.64c0,1.06-0.75,1.89-2.27,1.89c-1.34,0-2.6-0.47-3.43-0.96l-0.64,2.38
		c0.81,0.47,2.19,0.89,3.55,0.94v2.43h2.08v-2.6c2.4-0.47,3.81-2.21,3.81-4.38c0-2.21-1.15-3.4-3.66-4.53
		c-1.68-0.83-2.6-1.43-2.6-2.41c0-0.83,0.72-1.7,2.15-1.7c1.23,0,2.27,0.45,2.91,0.76L573.17,144.2z"/>
</g>
</svg>
