<svg width="30" height="35" viewBox="0 0 30 35" fill="none" xmlns="http://www.w3.org/2000/svg">
<path d="M10.3739 31.3972C10.7319 33.4848 12.5285 34.9998 14.6457 34.9998C16.7634 34.9998 18.5605 33.4848 18.9185 31.3972L18.9404 31.27H10.3521L10.3739 31.3972Z" fill="black"/>
<path d="M29.2597 25.4281C28.9093 25.0776 28.5523 24.7812 28.2069 24.4943C26.7541 23.2879 25.4993 22.2461 25.4993 17.9204V14.4891C25.4993 9.44371 21.9543 5.01652 17.0495 3.90651C17.2461 3.52096 17.3457 3.11573 17.3457 2.69963C17.3457 1.21118 16.1345 0 14.6455 0C13.1569 0 11.9459 1.21118 11.9459 2.69963C11.9459 3.116 12.0454 3.52117 12.2421 3.90651C7.33703 5.01652 3.79228 9.44371 3.79228 14.4891V17.9204C3.79228 22.2461 2.53748 23.288 1.08472 24.4943C0.73937 24.7811 0.382263 25.0776 0.0318552 25.4281L0 25.46V28.8641H29.2915V25.46L29.2597 25.4281Z" fill="black"/>
</svg>
