<svg width="25" height="25" viewBox="0 0 25 25" fill="none" xmlns="http://www.w3.org/2000/svg">
<path d="M12.5 0C5.59694 0 0 5.59694 0 12.5C0 19.4031 5.59694 25 12.5 25C19.4031 25 25 19.4031 25 12.5C25 5.59694 19.4031 0 12.5 0ZM19.8597 21.3367C19.0587 20.9362 16.3827 20.4056 15.7398 20C15.0026 19.5357 15.2398 17 15.2398 17L15.7398 16.5612C15.7398 16.5612 15.8673 15.4158 16.0842 14.9974C16.5714 14.0638 17.0842 12.4974 17.0842 12.4974C17.0842 12.4974 17.5842 12.1327 17.5842 11.4974C17.5842 10.8622 17.0842 10.4974 17.0842 10.4974C17.0842 10.4974 17.2704 8.72959 17.2704 7.5C17.2704 4.91582 15.648 3.5 12.7347 3.5C9.81888 3.5 7.69388 4.70408 7.69388 7.5C7.69388 8.72959 8.08418 10.5 8.08418 10.5C8.08418 10.5 7.58418 10.8648 7.58418 11.5C7.58418 12.1352 8.08418 12.5 8.08418 12.5C8.08418 12.5 8.66837 14.3138 9.08418 15C9.32653 15.4005 9.42857 16.5638 9.42857 16.5638L9.92857 17.0026C9.92857 17.0026 10.1658 19.5383 9.42857 20.0026C8.76276 20.4209 5.92092 20.9745 5.22704 21.3776C5.26275 21.4133 7.23469 23.1097 10.2296 23.7755C4.96429 22.7194 1 18.074 1 12.5C1 6.14796 6.14796 1 12.5 1C18.852 1 24 6.14796 24 12.5C24 16.051 22.3903 19.227 19.8597 21.3367Z" fill="black"/>
</svg>
