<svg width="35" height="32" viewBox="0 0 35 32" fill="none" xmlns="http://www.w3.org/2000/svg">
    <path d="M1.78585 3.52485C0.803738 5.45574 0 7.0506 0 7.06527C0 7.15295 1.71905 7.643 1.77839 7.58467C1.87503 7.48233 5.37247 1.17691 5.34262 1.14757C5.29785 1.11823 3.75753 0.116109 3.66834 0.0577774C3.60154 0.0207524 3.03587 1.06688 1.78585 3.52485Z" fill="black"/>
    <path d="M18.045 0.189232C17.6804 0.28424 15.8498 0.957325 13.9897 1.68141C12.1292 2.40549 10.4404 3.0419 10.2467 3.09325C9.54707 3.2616 9.11571 3.15891 7.73138 2.49351C7.03921 2.16448 6.46643 1.90111 6.45151 1.92312C6.36232 2.03279 2.97646 7.79681 2.99138 7.80414C3.03615 7.84082 6.12426 8.90127 7.37428 9.31099C9.97879 10.1594 11.2064 10.2401 12.7244 9.65469C13.327 9.428 15.3139 8.43322 16.2961 7.86247C18.439 6.63367 18.7591 6.54564 21.3189 6.48731C22.301 6.46531 23.3876 6.40698 23.7372 6.3703C25.0171 6.21661 25.4637 5.79257 24.9055 5.24383C24.7119 5.05347 24.5335 4.97313 24.0719 4.87079C23.5361 4.74644 23.1342 4.73177 20.0166 4.73177C16.1099 4.73911 15.8793 4.76111 13.6173 5.39752C13.446 5.44887 13.4386 5.44153 13.543 5.31719C13.7662 5.04648 14.8602 4.3004 15.4404 4.0297C16.4822 3.5323 16.7054 3.5103 20.5375 3.54697C24.1988 3.57632 24.4741 3.60566 25.3596 4.00036C26.1111 4.33672 26.4163 4.73177 26.4163 5.36085C26.4163 5.90225 26.2824 6.26796 25.9551 6.63367C25.3525 7.30675 24.2958 7.61378 22.3014 7.67246C21.2297 7.70914 21.0737 7.73079 21.2596 7.80414C21.3711 7.85549 21.9812 8.13318 22.6062 8.41855C24.5186 9.30365 25.285 9.50135 26.0589 9.27431C26.282 9.21563 26.5947 9.04762 26.7511 8.91594L27.0488 8.66724L27.4358 8.87926C28.1425 9.27431 29.1694 9.44966 29.8839 9.30365C30.4198 9.19398 30.8067 8.85761 30.8067 8.50622C30.8067 8.38187 30.8216 8.27953 30.8365 8.27953C30.8515 8.27953 31.231 8.39654 31.6772 8.5429C33.0538 8.99628 34.0956 8.90127 34.6388 8.26486C34.8694 7.99416 34.8844 7.62111 34.6687 7.28475C34.587 7.14573 34.2444 6.86036 33.9097 6.641C32.7937 5.92425 22.0409 0.584281 20.9842 0.225907C20.2327 -0.022788 18.9304 -0.0447931 18.045 0.189232Z" fill="black"/>
    <path d="M17.4126 10.6201V11.2051H18.3055H19.1984V11.7902V12.3752H19.7936H20.3813L20.4037 11.8049L20.4261 11.2414L21.3414 11.2194L22.2567 11.1974L22.2343 10.634L22.2119 10.0706L19.816 10.0486L17.4126 10.0339V10.6201Z" fill="black"/>
    <path d="M19.1909 13.0559C18.5435 13.239 18.1267 13.7217 18.0375 14.3944C17.9853 14.8405 18.0674 15.0308 18.4021 15.2065C18.7592 15.4039 20.91 15.3965 21.2671 15.2065C21.654 14.9945 21.7212 14.6578 21.4977 13.941C21.4156 13.685 21.0585 13.3266 20.7014 13.1509C20.3741 12.9829 19.6152 12.9389 19.1909 13.0559Z" fill="black"/>
    <path d="M18.7742 16.1065C17.4126 16.2235 16.2443 16.5309 15.1502 17.0646C12.6722 18.2861 10.9681 20.8684 10.5591 24.0578L10.4774 24.7235L10.2319 24.7675C9.8897 24.8335 9.3688 25.3089 9.09343 25.8137C8.86282 26.245 8.54268 27.2108 8.44603 27.7959L8.3938 28.1033H19.8309H31.2606L31.2087 27.8252C31.0299 26.8668 30.5762 25.733 30.1669 25.2576C29.9661 25.0236 29.4896 24.7382 29.2963 24.7382C29.1698 24.7382 29.0952 24.5188 29.0952 24.1531C29.0952 24.0141 29.0281 23.5897 28.9463 23.2167C28.1874 19.6909 26.0071 17.2696 22.8444 16.4429C21.6168 16.1285 20.069 15.9968 18.7742 16.1065ZM18.8563 17.3206C19.154 17.606 18.9529 17.862 18.2686 18.0814C17.1152 18.4471 16.0211 19.0835 15.2103 19.8736C14.3696 20.693 13.7815 21.6585 13.5136 22.6533C13.3498 23.275 13.0226 23.5017 12.7099 23.2237C12.5237 23.0626 12.5386 22.8066 12.7696 22.0899C13.3871 20.1733 14.6894 18.7541 16.6984 17.818C17.3607 17.511 18.2611 17.2183 18.5809 17.2109C18.6701 17.2036 18.7966 17.255 18.8563 17.3206ZM15.2099 25.4403C15.3812 25.5063 15.3663 25.8867 15.1876 25.9817C14.9793 26.0913 10.7823 26.084 10.5367 25.967C10.336 25.8793 10.2095 25.638 10.3211 25.5426C10.3509 25.5133 10.4476 25.4696 10.5293 25.4476C10.7524 25.3966 15.076 25.3893 15.2099 25.4403Z" fill="black"/>
    <path d="M6.69708 29.9464C6.12394 30.3121 5.4769 30.9265 5.41721 31.1605L5.37244 31.3215H19.801C31.625 31.3215 34.2296 31.3069 34.2296 31.2265C34.2296 30.9705 33.612 30.3708 32.8751 29.9024L32.4508 29.639H19.8156H7.18032L6.69708 29.9464Z" fill="black"/>
    </svg>
