<svg width="21" height="20" viewBox="0 0 21 20" fill="none" xmlns="http://www.w3.org/2000/svg">
<path d="M10.3922 0C4.65275 0 0 4.47718 0 10C0 15.5228 4.65275 20 10.3922 20C16.1316 20 20.7843 15.5228 20.7843 10C20.7843 4.47718 16.1316 0 10.3922 0ZM16.3981 8.44329L10.0929 14.5111C9.70407 14.8852 9.18716 15.0913 8.63747 15.0913C8.08779 15.0913 7.57087 14.8852 7.18208 14.5111L4.38622 11.8207C3.98032 11.4301 3.75683 10.9101 3.75683 10.3567C3.75683 9.80329 3.98032 9.28329 4.38622 8.89271C4.79262 8.50165 5.33301 8.28612 5.90764 8.28612C6.48226 8.28612 7.02265 8.50165 7.42905 8.89271L8.63747 10.0551L13.3553 5.51529C13.7617 5.12424 14.3021 4.90871 14.8767 4.90871C15.4513 4.90871 15.9917 5.12424 16.3981 5.51529C16.804 5.90588 17.0275 6.42588 17.0275 6.97929C17.0275 7.53271 16.804 8.05271 16.3981 8.44329Z" fill="#21B709"/>
</svg>
